<?xml version="1.0" encoding="UTF-8"?>
<svg id="_图层_2" data-name="图层 2" xmlns="http://www.w3.org/2000/svg" viewBox="0 0 2048 2047.77">
  <defs>
    <style>
      .cls-1 {
        fill: #c30109;
      }
    </style>
  </defs>
  <polygon class="cls-1" points="511.86 373.16 1376.11 198.17 1584.71 530.9 1184.35 366.54 983.6 469.42 511.86 373.16"/>
  <polygon class="cls-1" points="404.17 504.68 927.98 497.91 708.24 610.62 404.17 504.68"/>
  <polygon class="cls-1" points="1617.55 703.21 1692.28 701.11 1746.75 787.29 1617.55 703.21"/>
  <polygon class="cls-1" points="1379.67 710.03 1549.7 705.13 1680.11 914.73 1379.67 710.03"/>
  <polygon class="cls-1" points="1199.62 772.26 1316.71 717 1504.62 880.41 1199.62 772.26"/>
  <path class="cls-1" d="m1187.08,428.22l-760.05,389.22,648.98-18.54,245.66-115.22,458.25-12.92-592.84-242.54Zm120.04,204.01l-62.46-102.75,124.91,47.65-62.46,55.1Z"/>
  <polygon class="cls-1" points="368.16 847.66 1065.63 827.55 820.81 1215.48 921.06 1341.73 438.63 1419.01 192.63 937.4 368.16 847.66"/>
  <polygon class="cls-1" points="452.17 1446.08 945.89 1366.59 1249.76 1455.73 1821.57 1231.73 1278.59 1864.62 547.11 1630.88 452.17 1446.08"/>
</svg>